<svg xmlns="http://www.w3.org/2000/svg" version="1.1" xlink="http://www.w3.org/1999/xlink"
     xmlns:svgjs="http://svgjs.com/svgjs" width="100%" height="100%"
     viewBox="0.501787543296814 5.334067344665527 98.99949645996094 89.32493591308594">
    <g fill="#fff">
        <path d="M74.176 52.062H63.391c-.574 0-1.035.465-1.035 1.035v10.105c0 .574.465 1.035 1.035 1.035h10.785c.574 0 1.035-.464 1.035-1.035V53.097c0-.57-.46-1.035-1.035-1.035zm-6.43 10.105h-3.32v-2.98h3.32zm0-5.05h-3.32v-2.981h3.32zm5.395 5.05h-3.32v-2.98h3.32zm0-5.05h-3.32v-2.981h3.32zm-52.97-7.704h13.032c.574 0 1.035-.465 1.035-1.035V36.167c0-.57-.465-1.035-1.035-1.035H20.172c-.574 0-1.035.465-1.035 1.035v12.207c0 .574.464 1.039 1.035 1.039zm7.552-12.21h4.445v4.03h-4.445zm0 6.105h4.445v4.03h-4.445zm-6.516-6.106h4.445v4.031h-4.445zm0 6.106h4.445v4.03h-4.445zm50.637 36.266V78.16a1.034 1.034 0 1 1 2.07 0v1.414a1.034 1.034 0 1 1-2.07 0zm26.223-26.852l-8.41-6.372v-8.003h.613c.574 0 1.035-.465 1.035-1.036v-5.187c0-.57-.465-1.035-1.035-1.035h-8.328c-.574 0-1.035.465-1.035 1.035v5.187c0 .57.465 1.036 1.035 1.036h.613v2.62L69.41 31.012c-.75-.621-1.582.265-2.16.687v-18.52l4.188 1.75c.648.297 1.46-.238 1.433-.957v-5.25c0-.418-.25-.793-.637-.957L66.61 5.413a1.053 1.053 0 0 0-.8 0L7.16 29.963c-.387.16-.637.54-.637.958v5.25c-.012.554.48 1.046 1.035 1.035.137 0 .27-.028.399-.082l5.918-2.477v17.418c-.403-.008-.875-.023-1.168.305L.802 64.276c-.653.61-.164 1.8.73 1.77h3.977v27.577c0 .575.464 1.036 1.035 1.036h87.902c.574 0 1.035-.465 1.035-1.036v-4.672c0-.574-.465-1.035-1.035-1.035h-2.953l.004-31.14 2.203 1.667c3.855 2.809 8.078-2.758 4.367-5.722zM82.977 33.16h6.258v3.117c-.86-.004-5.395-.004-6.258 0zm4.61 5.187v6.434l-2.962-2.243v-4.187zM8.593 34.613v-3.004l57.621-24.11 4.59 1.919v3.004l-4.187-1.75a1.205 1.205 0 0 0-.367-.075c-.45-.125-57.223 23.941-57.656 24.016zm56.586-21.43V33.26c-.144.11-24.684 18.707-24.809 18.805H15.95V33.78zM4.032 63.976l9.84-9.84h24.512c-1.488 3.355 2.559 6.539 5.48 4.316l2.2-1.668v7.192zM42.08 88.953v3.632l-34.496.004V66.046h38.48v21.871h-2.949c-.574 0-1.035.465-1.035 1.036zm51.332 1.035v2.598l-49.262.004v-2.598zM76.497 68.867H61.063c-.574 0-1.035.465-1.035 1.035v18.016H48.133V55.215L68.781 39.57l20.641 15.641v32.707h-11.89V69.902c0-.574-.462-1.035-1.036-1.035zm-1.035 2.07v16.777H62.1V70.937zM94.958 56.8L69.411 37.445a1.037 1.037 0 0 0-1.254 0L46.473 53.871l-3.86 2.93a1.532 1.532 0 0 1-2.148-.293c-.515-.64-.375-1.652.29-2.133.003-.004.59-.445.593-.445 0 0 25.5-19.324 25.496-19.328l1.938-1.461 28.035 21.234c1.543 1.203-.18 3.644-1.86 2.426zM22.685 70.566h-10.5c-.574 0-1.035.465-1.035 1.035v14.531c0 .575.465 1.036 1.035 1.036h10.5c.574 0 1.035-.465 1.035-1.036v-14.53c0-.57-.46-1.036-1.035-1.036zM21.65 85.097h-8.43v-12.46h8.43zm19.809-14.53H30.963c-.574 0-1.035.464-1.035 1.034v14.531c0 .575.465 1.036 1.035 1.036h10.5c.574 0 1.035-.465 1.035-1.036v-14.53c0-.57-.465-1.036-1.039-1.036zm-1.035 14.53h-8.426v-12.46h8.426z"></path>
    </g>
</svg>